<?xml version="1.0" encoding="UTF-8"?>
<svg id="Layer_1" data-name="Layer 1" xmlns="http://www.w3.org/2000/svg" viewBox="0 0 636.8 163.28">
  <defs>
    <style>
      .cls-1 {
        fill: #efbf04;
      }

      .cls-2 {
        fill: #fff;
      }
    </style>
  </defs>
  <path class="cls-1" d="M492.12,44.69l4.57-6.49c7.69,5.08,14.58,10.38,20.57,15.44l6.96-5.35c-5.56-6.85-12.37-13.88-20.53-20.04l3.42-4.86-1.9-1.02,3.39-4.66-17.27-8.61-3.09,4.15-2.08-1.12-3.06,4.15c-31.41-13.52-63.83-9.27-63.83-9.27,0,0,26.65,4.3,56.53,19.17l-3.58,4.85,1.84,1.27-64.04,86.04v15.53h53.72v20.95h22.51v-20.95h16.24v-18.81h-16.24v-49.18l-21.8,31.2v17.98h-26.79l52.33-71.82,2.12,1.45Z"/>
  <path class="cls-2" d="M77.28,103.68c-2.97-2.26-6.19-4.08-9.67-5.46-3.48-1.38-6.87-2.48-10.17-3.29l-10.12-2.63c-2.02-.51-4.13-1.16-6.33-1.95-2.19-.79-4.24-1.79-6.15-2.99-1.91-1.2-3.44-2.69-4.6-4.48-1.16-1.79-1.75-3.91-1.75-6.38,0-2.94.85-5.56,2.56-7.87,1.7-2.31,4.11-4.13,7.21-5.47,3.1-1.33,6.78-2,11.03-2,5.94,0,10.86,1.32,14.78,3.97,3.91,2.65,6.14,6.37,6.68,11.16h15.08c-.14-5.57-1.75-10.5-4.86-14.8-3.1-4.3-7.35-7.68-12.73-10.15-5.38-2.46-11.58-3.69-18.6-3.69s-13.19,1.24-18.72,3.72c-5.53,2.48-9.92,5.95-13.16,10.4-3.24,4.45-4.86,9.67-4.86,15.64,0,7.22,2.42,13.02,7.26,17.41,4.84,4.39,11.41,7.71,19.71,9.97l12.25,3.34c3.71.98,7.04,2.11,9.99,3.39,2.95,1.28,5.3,2.9,7.03,4.86,1.74,1.96,2.61,4.47,2.61,7.54,0,3.37-1,6.32-2.99,8.83-1.99,2.51-4.71,4.47-8.17,5.87-3.46,1.4-7.4,2.1-11.82,2.1-4.02,0-7.7-.6-11.06-1.8-3.36-1.2-6.11-3.04-8.25-5.52-2.14-2.48-3.37-5.59-3.67-9.34h-15.69c.34,6.24,2.11,11.63,5.31,16.17s7.64,8.04,13.31,10.5,12.38,3.69,20.14,3.69,15-1.32,20.72-3.95,10.09-6.22,13.11-10.78c3.02-4.55,4.53-9.77,4.53-15.64,0-4.66-.92-8.65-2.76-11.99-1.84-3.34-4.24-6.14-7.21-8.4Z"/>
  <path class="cls-2" d="M137.55,140.02c-.91.17-1.97.25-3.19.25-1.65,0-3.18-.26-4.58-.78-1.4-.52-2.54-1.52-3.42-2.99-.88-1.47-1.32-3.67-1.32-6.6v-42.76h15.94v-12.15h-15.94v-18.62h-15.13v18.62h-11.39v12.15h11.39v45.9c0,4.69,1.06,8.59,3.19,11.69,2.12,3.1,4.91,5.4,8.35,6.88,3.44,1.48,7.15,2.19,11.13,2.12,2.43-.03,4.45-.23,6.07-.58,1.62-.35,2.87-.7,3.74-1.04l-2.73-12.5c-.51.1-1.21.24-2.13.41Z"/>
  <path class="cls-2" d="M192.86,73.83c-4.55,0-8.63,1.21-12.22,3.62-3.59,2.41-6.1,5.71-7.51,9.89h-.81v-12.35h-14.62v77.73h15.13v-47.47c0-3.37.81-6.38,2.43-9.03,1.62-2.65,3.82-4.72,6.6-6.22,2.78-1.5,5.96-2.25,9.54-2.25,1.55,0,3.1.11,4.66.33,1.55.22,2.63.41,3.24.58v-14.47c-.74-.1-1.76-.19-3.06-.25-1.3-.07-2.42-.1-3.37-.1Z"/>
  <path class="cls-2" d="M220.08,44.93c-2.63,0-4.88.89-6.76,2.66-1.87,1.77-2.81,3.91-2.81,6.4s.94,4.58,2.81,6.35c1.87,1.77,4.12,2.66,6.76,2.66s4.88-.89,6.76-2.66c1.87-1.77,2.81-3.9,2.81-6.4s-.94-4.58-2.81-6.35c-1.87-1.77-4.12-2.66-6.76-2.66Z"/>
  <rect class="cls-2" x="212.44" y="74.99" width="15.13" height="77.73"/>
  <polygon class="cls-2" points="313.44 74.99 295.33 74.99 264.36 107.88 263.04 107.88 263.04 49.08 247.91 49.08 247.91 152.72 263.04 152.72 263.04 125.14 270.56 117.62 297 152.72 315.57 152.72 281.98 108.35 313.44 74.99"/>
  <path class="cls-2" d="M383.48,82.98c-3.27-3.1-6.97-5.38-11.08-6.83-4.12-1.45-8.37-2.18-12.75-2.18-7.22,0-13.52,1.7-18.9,5.11-5.38,3.41-9.56,8.15-12.55,14.22-2.99,6.07-4.48,13.09-4.48,21.05s1.49,15.09,4.48,21.08c2.99,5.99,7.24,10.63,12.75,13.92,5.52,3.29,12.1,4.93,19.76,4.93,5.67,0,10.72-.87,15.16-2.61,4.44-1.74,8.13-4.18,11.08-7.34,2.95-3.15,5-6.84,6.15-11.06l-14.32-2.58c-.91,2.43-2.23,4.47-3.95,6.12-1.72,1.65-3.76,2.89-6.12,3.72-2.36.83-4.98,1.24-7.84,1.24-4.42,0-8.28-.95-11.59-2.86-3.31-1.91-5.88-4.68-7.72-8.33-1.71-3.39-2.62-7.46-2.73-12.2h55.23v-5.36c0-7.05-.94-13.05-2.83-17.99-1.89-4.94-4.47-8.96-7.74-12.07ZM338.84,107.07c.18-3.34,1.02-6.47,2.52-9.39,1.7-3.32,4.13-6.02,7.29-8.1,3.15-2.08,6.86-3.11,11.11-3.11,3.91,0,7.33.89,10.25,2.68,2.92,1.79,5.19,4.23,6.81,7.31s2.43,6.62,2.43,10.6h-40.39Z"/>
  <path class="cls-1" d="M586.73,102.38c7.41-4.56,11.68-11.54,11.68-20.52,0-17.53-15.67-28.5-38.62-28.5-9.8,0-18.29,2.06-24.77,5.8,3.26,4.77,7.09,10.74,10.94,17.58,2.38-4.1,7.32-6.43,13.83-6.43,9.41,0,15.68,4.7,15.68,12.54s-6.13,12.26-15.68,12.26-15.39-4.7-15.39-12.26c0-1.17.15-2.25.41-3.27-4.41-4.13-10.83-10.1-16.44-15.26-4.42,4.62-6.91,10.56-6.91,17.53,0,8.98,4.13,15.96,11.54,20.52-9.55,4.84-15.11,12.83-15.11,23.51,0,18.81,16.67,30.64,41.9,30.64s42.18-11.83,42.18-30.64c0-10.69-5.56-18.67-15.25-23.51ZM559.8,139.57c-11.4,0-18.53-5.56-18.53-14.39s7.13-14.25,18.53-14.25,18.81,5.42,18.81,14.25-7.27,14.39-18.81,14.39Z"/>
  <polygon class="cls-1" points="623.96 56.28 622.32 56.28 621.88 56.28 618.29 64.78 614.7 56.28 614.26 56.28 612.63 56.28 612.25 56.28 612.25 67.86 614.26 67.86 614.26 59.98 617.76 67.86 618.83 67.86 622.32 59.98 622.32 67.86 624.33 67.86 624.33 56.28 623.96 56.28"/>
  <polygon class="cls-1" points="601.17 58.05 604.7 58.05 604.7 67.86 606.71 67.86 606.71 58.05 610.24 58.05 610.24 56.28 601.17 56.28 601.17 58.05"/>
</svg>